<?xml version="1.0" standalone="no"?>
<!DOCTYPE svg PUBLIC "-//W3C//DTD SVG 20010904//EN"
 "http://www.w3.org/TR/2001/REC-SVG-20010904/DTD/svg10.dtd">
<svg version="1.0" xmlns="http://www.w3.org/2000/svg"
 width="260.000000pt" height="260.000000pt" viewBox="0 0 260.000000 260.000000"
 preserveAspectRatio="xMidYMid meet">
<metadata>
Created by potrace 1.11, written by Peter Selinger 2001-2013
</metadata>
<g transform="translate(0.000000,260.000000) scale(0.100000,-0.100000)"
fill="#000000" stroke="none">
<path d="M180 1260 l0 -800 645 0 645 0 0 155 c0 154 0 155 23 156 12 0 84 1
160 1 l137 1 0 484 c0 379 -3 483 -12 484 -7 1 -78 2 -158 3 l-145 1 -3 158
-3 157 -644 0 -645 0 0 -800z m1275 10 c0 -245 -1 -451 -3 -457 -3 -10 -106
-13 -468 -13 -435 0 -464 1 -465 18 0 9 -1 216 -2 459 l-2 443 470 -3 469 -2
1 -445z"/>
<path d="M2030 1260 l0 -800 169 0 169 0 0 800 0 800 -169 0 -169 0 0 -800z"/>
</g>
</svg>
